<svg id="Слой_1" xmlns="http://www.w3.org/2000/svg" viewBox="0 0 230 230"><defs><style>.cls-1,.cls-2{fill:#f7931e;}.cls-2{opacity:0.3;}</style></defs><title>icon</title><path class="cls-1" d="M41.77,133.79l11.36-1.57a.7.7,0,0,1,.85.64,4,4,0,0,0,4.15,3.29c2.35,0,3.86-1.5,3.86-4.29s-1.72-4.36-4.51-4.36H55.56a.67.67,0,0,1-.72-.71V117a.67.67,0,0,1,.72-.71h1.78a3.53,3.53,0,0,0,3.86-3.86,3.37,3.37,0,0,0-3.5-3.72c-2,0-3.14,1.29-3.57,3.29a.67.67,0,0,1-.79.57L42,111.07a.62.62,0,0,1-.57-.78c1.29-7.65,7.07-13,17.15-13,10.5,0,16.5,5.93,16.5,13.43a11.53,11.53,0,0,1-5.5,9.93v.15c3.36,1.85,6.29,5.14,6.29,11.64,0,8.86-6.86,15.15-17.22,15.15-9.93,0-16.43-5.15-17.43-12.93A.69.69,0,0,1,41.77,133.79Z"/><path class="cls-1" d="M85.42,117.36,95,98.71a.86.86,0,0,1,.93-.57h13.79c.57,0,.71.36.5.79l-9.08,17.43.07.07a5.89,5.89,0,0,1,1.72-.21c8.36,0,14.07,6.42,14.07,15.36,0,9.43-7.21,16-17.93,16s-17.93-6.57-17.93-16C81.13,126.79,82.42,123.22,85.42,117.36Zm13.64,18.79a4.58,4.58,0,1,0-4.5-4.57A4.37,4.37,0,0,0,99.06,136.15Z"/><path class="cls-1" d="M122.06,122.43c0-9.64.36-11.64,1.22-14.22,2.28-6.85,8-10.93,16.5-10.93s14.22,4.08,16.5,10.93c.86,2.58,1.22,4.58,1.22,14.22s-.36,11.65-1.22,14.22c-2.28,6.86-8,10.93-16.5,10.93s-14.22-4.07-16.5-10.93C122.42,134.08,122.06,132.08,122.06,122.43Zm17.72,13.72a2.65,2.65,0,0,0,2.86-1.93c.28-.86.43-1.72.43-11.79s-.15-10.93-.43-11.79a3.08,3.08,0,0,0-5.72,0c-.28.86-.43,1.72-.43,11.79s.15,10.93.43,11.79A2.65,2.65,0,0,0,139.78,136.15Z"/><path class="cls-1" d="M174,113.34a15.26,15.26,0,1,1,15.25-15.25A15.27,15.27,0,0,1,174,113.34Zm0-20.51a5.26,5.26,0,1,0,5.25,5.26A5.26,5.26,0,0,0,174,92.83Z"/><path class="cls-1" d="M115,23a92,92,0,1,1-92,92,92.1,92.1,0,0,1,92-92m0-23A115,115,0,1,0,230,115,115,115,0,0,0,115,0Z"/><circle class="cls-2" cx="115" cy="115" r="95"/></svg>
